<svg width="100%" height="100%" viewBox="0 0 20 20" fill="none" xmlns="http://www.w3.org/2000/svg">
<path d="M6.03517 9.2356C6.40892 7.84093 7.84252 6.40734 9.23718 6.03358L17.9322 3.70341C19.3269 3.32966 20.1545 4.15727 19.7807 5.55194L17.4505 14.2469C17.0768 15.6416 15.6432 17.0752 14.2485 17.4489L5.55352 19.7791C4.15885 20.1529 3.33124 19.3253 3.705 17.9306L6.03517 9.2356Z" fill="#9DC4F8"/>
<path d="M2.54933 5.74976C2.92308 4.35509 4.35668 2.9215 5.75135 2.54774L14.4464 0.217573C15.841 -0.156183 16.6686 0.671429 16.2949 2.0661L13.9647 10.7611C13.591 12.1558 12.1574 13.5894 10.7627 13.9631L2.06768 16.2933C0.673015 16.667 -0.1546 15.8394 0.219157 14.4448L2.54933 5.74976Z" fill="#406AFF"/>
</svg>
